<svg xmlns="http://www.w3.org/2000/svg" xmlns:xlink="http://www.w3.org/1999/xlink" width="72" height="72">
    <path fill="#555" d="M6.26 14.70L33.26 14.70L33.26 10.51L11.21 10.51L11.21 6.26L60.47 6.26L60.47 10.51L38.21 10.51L38.21 14.70L65.64 14.70L65.64 29.50L60.54 29.50L60.54 18.60L38.21 18.60L38.21 36.56L33.26 36.56L33.26 18.60L11.36 18.60L11.36 29.50L6.26 29.50L6.26 14.70ZM66.59 44.40L37.27 44.40L37.27 47.07L38.78 47.64Q52.07 52.77 62.12 57.73L62.12 57.73L58.68 62.19Q46.90 55.83 37.27 51.82L37.27 51.82L37.27 68.38L32.10 68.38L32.10 44.40L4.96 44.40L4.96 39.94L66.59 39.94L66.59 44.40ZM14.66 26.54L14.66 22.89L29.95 22.89L29.95 26.54L14.66 26.54ZM14.66 34.45L14.66 30.80L29.95 30.80L29.95 34.45L14.66 34.45ZM41.52 26.54L41.52 22.89L57.23 22.89L57.23 26.54L41.52 26.54ZM41.52 34.45L41.52 30.80L57.23 30.80L57.23 34.45L41.52 34.45Z" />
</svg>